<svg width="82" height="82" viewBox="0 0 82 82" fill="none" xmlns="http://www.w3.org/2000/svg">
<path d="M0 0H82V82H0V0Z" fill="black"/>
<path d="M39.4428 33.6011C39.0814 34.1187 38.5761 34.5068 37.9267 34.7656C37.2821 35.0195 36.5302 35.1465 35.6708 35.1465C34.8017 35.1465 34.0302 34.9438 33.3563 34.5386C32.6825 34.1284 32.1601 33.5474 31.789 32.7954C31.4228 32.0435 31.2348 31.1719 31.225 30.1807V29.2505C31.225 27.644 31.5985 26.3989 32.3456 25.5151C33.0976 24.6313 34.1522 24.1895 35.5097 24.1895C36.6229 24.1895 37.5189 24.4751 38.1977 25.0464C38.8764 25.6128 39.2914 26.4185 39.4428 27.4634H38.0365C37.7729 26.0522 36.933 25.3467 35.517 25.3467C34.5746 25.3467 33.8593 25.6787 33.371 26.3428C32.8876 27.002 32.6435 27.959 32.6386 29.2139V30.0854C32.6386 31.2817 32.912 32.2339 33.4589 32.9419C34.0058 33.645 34.7455 33.9966 35.6781 33.9966C36.2055 33.9966 36.6669 33.938 37.0624 33.8208C37.4579 33.7036 37.7851 33.5059 38.0438 33.2275V30.8325H35.5756V29.6899H39.4428V33.6011ZM50.797 30.0122C50.797 31.0571 50.6212 31.9702 50.2696 32.7515C49.9181 33.5278 49.42 34.1211 48.7755 34.5312C48.131 34.9414 47.379 35.1465 46.5196 35.1465C45.6798 35.1465 44.9352 34.9414 44.2857 34.5312C43.6363 34.1162 43.131 33.5278 42.7696 32.7661C42.4132 31.9995 42.2301 31.1133 42.2203 30.1074V29.3384C42.2203 28.313 42.3985 27.4072 42.755 26.6211C43.1114 25.835 43.6144 25.2344 44.2638 24.8193C44.9181 24.3994 45.6651 24.1895 46.505 24.1895C47.3595 24.1895 48.1114 24.397 48.7608 24.812C49.4151 25.2222 49.9181 25.8203 50.2696 26.6064C50.6212 27.3877 50.797 28.2983 50.797 29.3384V30.0122ZM49.398 29.3237C49.398 28.0591 49.1441 27.0898 48.6363 26.416C48.1285 25.7373 47.4181 25.3979 46.505 25.3979C45.6163 25.3979 44.9156 25.7373 44.4029 26.416C43.8951 27.0898 43.6339 28.0273 43.6192 29.2285V30.0122C43.6192 31.2378 43.8756 32.2021 44.3883 32.9053C44.9059 33.6035 45.6163 33.9526 46.5196 33.9526C47.4278 33.9526 48.131 33.623 48.629 32.9639C49.1271 32.2998 49.3834 31.3501 49.398 30.1147V29.3237Z" fill="white"/>
<path d="M38.1938 39.625H39.6938V47.3203C39.6938 48.1745 39.5036 48.8854 39.1234 49.4531C38.7432 50.0208 38.238 50.4479 37.6078 50.7344C36.9828 51.0156 36.3031 51.1562 35.5688 51.1562C34.7979 51.1562 34.1 51.0156 33.475 50.7344C32.8552 50.4479 32.363 50.0208 31.9984 49.4531C31.6391 48.8854 31.4594 48.1745 31.4594 47.3203V39.625H32.9516V47.3203C32.9516 47.9141 33.0609 48.4036 33.2797 48.7891C33.4984 49.1745 33.8031 49.4609 34.1938 49.6484C34.5896 49.8359 35.0479 49.9297 35.5688 49.9297C36.0948 49.9297 36.5531 49.8359 36.9438 49.6484C37.3396 49.4609 37.6469 49.1745 37.8656 48.7891C38.0844 48.4036 38.1938 47.9141 38.1938 47.3203V39.625ZM47.0563 46.5391H44.0172V45.3125H47.0563C47.6448 45.3125 48.1214 45.2188 48.4859 45.0312C48.8505 44.8438 49.1161 44.5833 49.2828 44.25C49.4547 43.9167 49.5406 43.5365 49.5406 43.1094C49.5406 42.7188 49.4547 42.3516 49.2828 42.0078C49.1161 41.6641 48.8505 41.388 48.4859 41.1797C48.1214 40.9661 47.6448 40.8594 47.0563 40.8594H44.3688V51H42.8609V39.625H47.0563C47.9156 39.625 48.6422 39.7734 49.2359 40.0703C49.8297 40.3672 50.2802 40.7786 50.5875 41.3047C50.8948 41.8255 51.0484 42.4219 51.0484 43.0938C51.0484 43.8229 50.8948 44.4453 50.5875 44.9609C50.2802 45.4766 49.8297 45.8698 49.2359 46.1406C48.6422 46.4062 47.9156 46.5391 47.0563 46.5391Z" fill="white"/>
</svg>
